<?xml version="1.0" encoding="UTF-8" standalone="no"?>
<!DOCTYPE svg PUBLIC "-//W3C//DTD SVG 1.1//EN" "http://www.w3.org/Graphics/SVG/1.1/DTD/svg11.dtd">
<svg xmlns="http://www.w3.org/2000/svg" version="1.1" viewBox="0.00 0.00 1080.00 1080.00">
<path fill="#fff2d0" d="
  M 887.59 809.32
  C 864.98 841.78 833.57 868.23 799.04 886.09
  C 749.70 911.60 694.40 925.15 639.49 930.47
  Q 629.06 931.48 616.49 932.45
  Q 573.88 935.71 533.73 932.46
  Q 518.52 931.23 511.88 930.52
  C 476.01 926.69 441.35 919.30 408.37 906.00
  C 375.68 892.82 347.06 872.36 323.18 846.07
  Q 306.46 827.67 292.92 807.33
  C 267.14 768.60 247.49 726.40 227.90 683.11
  Q 220.11 665.91 213.55 650.17
  Q 193.06 601.08 187.50 551.25
  Q 184.04 520.21 185.07 486.25
  Q 185.27 479.75 186.49 463.71
  C 193.52 371.33 226.48 279.77 283.75 206.25
  C 304.16 180.05 328.49 156.78 356.10 138.31
  Q 425.97 91.59 508.96 101.84
  C 532.28 104.72 557.24 111.89 579.29 120.96
  C 593.69 126.89 606.98 135.29 618.67 146.81
  Q 629.76 157.73 636.00 165.56
  Q 668.86 206.81 679.09 219.21
  Q 713.39 260.80 731.23 282.63
  Q 753.31 309.67 772.51 335.10
  Q 797.96 368.78 823.47 408.02
  C 845.63 442.10 865.98 477.71 882.43 515.28
  Q 908.21 574.14 919.66 635.86
  Q 923.69 657.58 924.73 681.26
  Q 927.82 751.54 887.59 809.32
  Z
  M 889.91 760.11
  Q 907.34 717.67 907.12 671.27
  Q 907.04 653.61 906.74 649.51
  Q 904.63 620.56 897.93 594.07
  C 885.02 543.04 861.26 497.07 830.31 452.19
  Q 810.71 423.79 787.00 394.51
  A 0.51 0.51 0.0 0 0 786.11 394.72
  Q 785.37 398.14 784.97 401.24
  Q 782.33 421.59 769.22 516.92
  C 768.40 522.88 766.68 530.37 759.40 531.09
  C 751.22 531.91 743.83 528.06 737.14 523.53
  Q 666.14 475.54 598.10 423.05
  Q 593.56 419.55 591.71 417.04
  C 586.49 409.93 594.78 403.62 601.09 401.36
  Q 605.54 399.76 608.66 399.86
  Q 618.60 400.17 628.01 398.81
  C 646.12 396.21 649.43 385.19 649.05 369.26
  C 648.88 362.59 647.38 355.29 647.95 348.69
  C 648.57 341.45 653.02 334.88 660.99 335.86
  C 666.14 336.49 670.81 340.25 674.98 343.78
  Q 676.24 344.84 690.17 358.45
  C 700.16 368.20 712.61 378.58 726.71 383.26
  Q 747.23 390.07 766.11 380.19
  Q 769.21 378.57 770.97 374.71
  C 773.00 370.26 769.44 362.31 767.16 358.59
  Q 758.11 343.82 754.72 338.10
  C 746.90 324.90 738.03 311.81 730.81 302.19
  C 708.88 272.94 686.46 247.75 658.45 217.15
  C 637.32 194.07 619.87 172.42 599.86 154.52
  C 584.04 140.37 566.22 129.23 545.89 122.96
  Q 539.97 121.14 530.10 119.49
  Q 517.60 117.41 514.06 117.26
  Q 476.55 115.66 439.18 126.92
  Q 391.36 141.34 351.24 172.28
  Q 301.10 210.97 268.13 265.66
  C 243.15 307.09 227.18 353.17 220.01 401.02
  Q 216.18 426.57 215.16 454.00
  Q 213.41 500.97 220.49 548.77
  Q 232.23 628.15 262.09 702.95
  C 279.49 746.54 302.54 788.72 335.56 821.95
  C 389.54 876.28 464.55 897.44 539.01 903.49
  Q 575.09 906.43 616.75 905.78
  Q 652.80 905.23 684.19 902.83
  Q 701.03 901.54 722.49 897.76
  C 760.68 891.04 797.07 876.48 824.78 850.16
  C 847.04 829.01 861.50 803.05 864.29 772.77
  Q 865.31 761.78 864.34 748.77
  C 863.24 733.91 860.48 718.88 857.41 704.52
  C 856.61 700.77 856.10 696.34 859.07 693.40
  A 1.65 1.65 0.0 0 1 860.27 692.93
  C 863.93 693.03 868.07 701.18 869.98 704.79
  Q 878.24 720.40 883.00 736.01
  Q 885.06 742.78 889.19 760.06
  A 0.38 0.38 0.0 0 0 889.91 760.11
  Z
  M 685.13 394.13
  Q 680.89 393.35 679.75 397.78
  C 677.87 405.07 676.90 411.40 668.00 412.73
  Q 664.20 413.30 655.26 414.51
  C 649.50 415.29 644.70 419.22 645.71 425.56
  C 646.61 431.16 650.79 436.78 654.29 440.72
  Q 665.78 453.68 680.32 463.94
  Q 701.76 479.06 724.58 489.45
  C 730.76 492.26 736.77 494.02 743.46 494.78
  Q 744.96 494.95 747.43 493.38
  A 1.32 1.31 75.5 0 0 748.03 492.35
  C 748.24 488.24 744.35 484.05 742.47 479.91
  Q 736.13 465.96 742.30 451.09
  Q 745.74 442.82 749.79 433.32
  Q 754.59 422.07 754.64 409.66
  Q 754.66 402.74 747.78 403.70
  Q 736.50 405.27 724.97 406.85
  C 710.27 408.86 698.47 405.61 687.64 395.31
  Q 686.70 394.41 685.13 394.13
  Z"
/>
<path fill="#fff2d0" d="
  M 465.29 150.74
  A 1.74 1.74 0.0 0 1 464.73 148.34
  L 465.39 147.27
  A 4.36 3.69 -58.3 0 1 470.82 145.50
  L 470.89 145.54
  A 4.36 3.69 -58.3 0 1 471.74 151.19
  L 471.07 152.26
  A 1.74 1.74 0.0 0 1 468.68 152.83
  L 465.29 150.74
  Z"
/>
<path fill="#fff2d0" d="
  M 464.86 240.36
  A 1.50 1.49 -3.2 0 1 463.48 241.90
  Q 452.09 242.73 440.50 242.00
  C 421.25 240.79 404.41 239.53 386.74 241.90
  Q 372.16 243.86 358.64 252.42
  Q 357.06 253.42 356.37 253.30
  C 353.74 252.80 352.96 246.99 353.40 244.99
  C 355.95 233.56 373.13 229.13 382.96 226.90
  Q 401.90 222.62 417.32 222.27
  Q 431.16 221.96 446.27 224.79
  C 455.27 226.47 464.53 229.92 464.86 240.36
  Z"
/>
<path fill="#fff2d0" d="
  M 667.90 277.32
  A 2.05 2.03 -7.7 0 1 666.22 279.51
  Q 660.73 280.48 655.52 280.14
  C 635.87 278.86 615.86 276.58 597.07 271.92
  Q 588.69 269.84 583.11 266.18
  C 579.79 264.00 578.62 259.65 582.70 257.29
  A 1.28 1.26 -50.6 0 1 583.72 257.18
  Q 595.33 261.01 608.02 260.89
  Q 635.68 260.63 643.47 261.01
  Q 649.17 261.29 656.21 263.48
  Q 666.94 266.82 667.90 277.32
  Z"
/>
<path fill="#fff2d0" d="
  M 497.89 358.87
  C 495.26 368.98 492.74 378.07 492.31 388.25
  Q 491.79 400.68 490.74 442.50
  Q 490.35 458.26 488.86 470.81
  C 488.04 477.76 484.89 495.85 474.50 494.93
  C 465.47 494.12 459.50 486.09 452.10 477.70
  C 450.35 475.71 448.02 473.24 445.40 472.94
  A 2.86 2.46 -73.6 0 0 442.72 474.67
  Q 441.69 477.08 441.34 480.03
  C 440.39 488.00 438.98 497.82 433.89 504.60
  C 427.26 513.42 414.45 505.37 408.26 499.70
  Q 402.91 494.81 398.96 490.10
  Q 386.14 474.83 377.66 466.64
  C 360.27 449.86 339.37 436.94 322.85 418.97
  Q 312.95 408.21 305.68 393.61
  C 300.73 383.67 301.49 371.82 314.06 368.14
  C 324.74 365.01 336.01 366.67 347.45 368.93
  C 361.93 371.79 364.50 360.83 363.82 349.75
  Q 363.62 346.53 362.55 329.01
  Q 362.37 326.06 363.22 321.71
  C 364.86 313.35 372.95 312.49 380.02 314.92
  Q 394.99 320.07 404.07 332.50
  Q 407.20 336.79 411.67 346.93
  Q 416.89 358.76 418.34 361.87
  C 420.52 366.53 423.90 365.82 427.14 362.50
  Q 428.19 361.44 438.11 353.91
  Q 449.36 345.38 462.11 342.60
  C 476.00 339.57 488.72 345.71 497.35 356.38
  A 2.83 2.82 32.8 0 1 497.89 358.87
  Z
  M 462.71 435.43
  C 464.29 433.87 464.69 431.36 465.05 429.26
  C 468.58 408.83 470.55 386.75 471.86 369.87
  C 472.02 367.85 472.57 363.96 471.24 362.24
  Q 469.60 360.13 466.47 361.48
  Q 452.53 367.50 441.31 378.30
  C 434.04 385.29 426.44 394.68 415.13 389.62
  C 408.98 386.86 404.36 380.82 399.49 375.11
  C 397.57 372.86 393.57 371.31 391.48 374.01
  C 386.92 379.87 390.81 391.77 380.93 393.62
  C 373.68 394.98 367.41 392.81 361.05 393.54
  Q 356.18 394.10 355.20 394.44
  C 344.94 397.97 343.04 407.04 348.95 415.46
  C 353.58 422.06 359.68 427.49 366.09 432.67
  Q 386.30 448.98 409.79 464.00
  Q 412.72 465.87 413.99 465.93
  C 417.05 466.08 418.48 463.10 419.14 460.57
  Q 421.96 449.84 425.37 441.41
  C 428.66 433.26 434.81 420.30 445.10 424.48
  C 448.79 425.99 452.54 430.75 455.60 434.13
  C 457.35 436.07 460.57 437.53 462.71 435.43
  Z"
/>
<path fill="#fff2d0" d="
  M 558.93 735.80
  C 541.65 729.89 529.82 716.19 527.32 698.00
  C 524.71 679.13 530.68 660.01 537.42 642.69
  Q 538.64 639.54 540.83 637.08
  Q 551.27 625.38 565.94 615.27
  C 582.60 603.79 603.24 593.48 624.00 597.48
  C 631.68 598.96 640.80 602.81 648.16 605.03
  C 666.19 610.44 684.04 618.36 699.06 629.67
  C 710.59 638.34 721.44 652.73 718.63 668.26
  C 714.19 692.88 688.87 710.64 667.75 721.09
  Q 631.30 739.12 590.72 740.60
  Q 574.66 741.19 558.93 735.80
  Z
  M 540.92 670.52
  Q 540.70 674.21 541.59 681.78
  Q 542.35 688.27 543.95 692.79
  C 550.63 711.70 568.83 721.50 588.08 725.41
  Q 601.83 728.20 612.70 727.74
  C 649.15 726.19 689.89 707.83 697.06 667.96
  C 697.89 663.30 700.50 658.64 700.79 654.24
  C 701.42 644.67 694.00 635.39 686.38 630.34
  C 665.31 616.38 639.93 611.27 614.76 610.97
  Q 601.85 610.81 594.50 613.43
  C 582.63 617.66 574.59 625.15 567.77 635.77
  Q 563.38 642.59 555.62 655.36
  Q 553.80 658.36 549.12 663.60
  A 4.44 4.38 -83.3 0 1 548.02 664.48
  C 545.01 666.19 541.08 667.90 540.92 670.52
  Z"
/>
<path fill="#fff2d0" d="
  M 483.10 685.77
  C 483.64 683.12 486.98 680.03 489.04 683.21
  Q 491.19 686.53 489.04 690.63
  A 0.74 0.74 0.0 0 1 488.12 690.99
  Q 484.56 689.67 483.21 686.78
  A 1.66 1.59 -52.4 0 1 483.10 685.77
  Z"
/>
</svg>
